<svg xmlns="http://www.w3.org/2000/svg" xmlns:xlink="http://www.w3.org/1999/xlink" width="48" height="48" fill="none"><filter id="b" width="48" height="54" x="0" y="-3" color-interpolation-filters="sRGB" filterUnits="userSpaceOnUse"><feFlood flood-opacity="0" result="BackgroundImageFix"/><feBlend in="SourceGraphic" in2="BackgroundImageFix" result="shape"/><feColorMatrix in="SourceAlpha" result="hardAlpha" values="0 0 0 0 0 0 0 0 0 0 0 0 0 0 0 0 0 0 127 0"/><feOffset dy="-3"/><feGaussianBlur stdDeviation="1.5"/><feComposite in2="hardAlpha" k2="-1" k3="1" operator="arithmetic"/><feColorMatrix values="0 0 0 0 0 0 0 0 0 0 0 0 0 0 0 0 0 0 0.1 0"/><feBlend in2="shape" result="effect1_innerShadow_3051_46847"/><feColorMatrix in="SourceAlpha" result="hardAlpha" values="0 0 0 0 0 0 0 0 0 0 0 0 0 0 0 0 0 0 127 0"/><feOffset dy="3"/><feGaussianBlur stdDeviation="1.5"/><feComposite in2="hardAlpha" k2="-1" k3="1" operator="arithmetic"/><feColorMatrix values="0 0 0 0 1 0 0 0 0 1 0 0 0 0 1 0 0 0 0.1 0"/><feBlend in2="effect1_innerShadow_3051_46847" result="effect2_innerShadow_3051_46847"/><feColorMatrix in="SourceAlpha" result="hardAlpha" values="0 0 0 0 0 0 0 0 0 0 0 0 0 0 0 0 0 0 127 0"/><feMorphology in="SourceAlpha" radius="1" result="effect3_innerShadow_3051_46847"/><feOffset/><feComposite in2="hardAlpha" k2="-1" k3="1" operator="arithmetic"/><feColorMatrix values="0 0 0 0 0.0627451 0 0 0 0 0.0941176 0 0 0 0 0.156863 0 0 0 0.24 0"/><feBlend in2="effect2_innerShadow_3051_46847" result="effect3_innerShadow_3051_46847"/></filter><filter id="e" width="36" height="42" x="6" y="5.25" color-interpolation-filters="sRGB" filterUnits="userSpaceOnUse"><feFlood flood-opacity="0" result="BackgroundImageFix"/><feColorMatrix in="SourceAlpha" result="hardAlpha" values="0 0 0 0 0 0 0 0 0 0 0 0 0 0 0 0 0 0 127 0"/><feMorphology in="SourceAlpha" radius="1.5" result="effect1_dropShadow_3051_46847"/><feOffset dy="2.25"/><feGaussianBlur stdDeviation="2.25"/><feComposite in2="hardAlpha" operator="out"/><feColorMatrix values="0 0 0 0 0.141176 0 0 0 0 0.141176 0 0 0 0 0.141176 0 0 0 0.1 0"/><feBlend in2="BackgroundImageFix" result="effect1_dropShadow_3051_46847"/><feBlend in="SourceGraphic" in2="effect1_dropShadow_3051_46847" result="shape"/></filter><linearGradient id="d" x1="24" x2="26" y1="0" y2="48" gradientUnits="userSpaceOnUse"><stop offset="0" stop-color="#fff" stop-opacity="0"/><stop offset="1" stop-color="#fff" stop-opacity=".12"/></linearGradient><linearGradient id="a"><stop offset="0" stop-color="#fff" stop-opacity=".8"/><stop offset="1" stop-color="#fff" stop-opacity=".5"/></linearGradient><linearGradient xlink:href="#a" id="f" x1="31.308" x2="27.547" y1="8.507" y2="22.542" gradientUnits="userSpaceOnUse"/><linearGradient xlink:href="#a" id="g" x1="24.695" x2="20.464" y1="14.391" y2="30.18" gradientUnits="userSpaceOnUse"/><linearGradient xlink:href="#a" id="h" x1="18.081" x2="13.38" y1="20.275" y2="37.819" gradientUnits="userSpaceOnUse"/><linearGradient id="i" x1="24" x2="24" y1="0" y2="48" gradientUnits="userSpaceOnUse"><stop offset="0" stop-color="#fff" stop-opacity=".12"/><stop offset="1" stop-color="#fff" stop-opacity="0"/></linearGradient><clipPath id="c"><rect width="48" height="48" rx="12"/></clipPath><g filter="url(#b)"><g clip-path="url(#c)"><rect width="48" height="48" fill="#444ce7" rx="12"/><path fill="url(#d)" d="M0 0h48v48H0z"/><g fill-rule="evenodd" clip-rule="evenodd" filter="url(#e)"><path fill="url(#f)" d="m34.94 12.3-7.264-1.946c-.502-.134-.909.178-.909.697v7.521c0 .52.407 1.05.909 1.184l7.265 1.946c.501.135.908-.177.908-.697v-7.52c0-.52-.407-1.05-.908-1.184zm-7.264-4.767c-2.007-.537-3.633.71-3.633 2.788v7.521c0 2.077 1.626 4.197 3.633 4.734l7.265 1.947c2.006.537 3.632-.71 3.632-2.788v-7.52c0-2.078-1.626-4.197-3.632-4.735z" opacity=".5"/><path fill="url(#g)" d="m29.235 18.428-9.081-2.433c-.502-.135-.908.177-.908.697v9.401c0 .52.406 1.05.908 1.184l9.081 2.433c.502.135.908-.177.908-.697v-9.401c0-.52-.406-1.05-.908-1.184zm-9.081-5.254c-2.006-.537-3.633.71-3.633 2.788v9.401c0 2.077 1.627 4.197 3.633 4.734l9.081 2.434c2.007.537 3.633-.71 3.633-2.788v-9.401c0-2.077-1.626-4.197-3.633-4.734z" opacity=".7"/><path fill="url(#h)" d="m23.53 24.556-10.898-2.92c-.501-.135-.908.177-.908.697v11.282c0 .519.407 1.049.909 1.183l10.897 2.92c.502.134.908-.177.908-.697V25.74c0-.52-.406-1.049-.908-1.183zm-10.898-5.74C10.627 18.277 9 19.525 9 21.602v11.281c0 2.078 1.626 4.197 3.632 4.735l10.898 2.92c2.006.537 3.633-.71 3.633-2.788V26.47c0-2.077-1.627-4.196-3.633-4.734z"/></g></g><rect width="46" height="46" x="1" y="1" stroke="url(#i)" stroke-width="2" rx="11"/></g></svg>